<svg width="30" height="31" viewBox="0 0 30 31" fill="none" xmlns="http://www.w3.org/2000/svg">
<path d="M15.0869 0.916626C7.0661 0.916626 0.503601 7.47913 0.503601 15.5C0.503601 23.5208 7.0661 30.0833 15.0869 30.0833C23.1078 30.0833 29.6703 23.5208 29.6703 15.5C29.6703 7.47913 23.1078 0.916626 15.0869 0.916626ZM15.0869 27.1666C8.65569 27.1666 3.42027 21.9312 3.42027 15.5C3.42027 9.06871 8.65569 3.83329 15.0869 3.83329C21.5182 3.83329 26.7536 9.06871 26.7536 15.5C26.7536 21.9312 21.5182 27.1666 15.0869 27.1666ZM15.8161 8.20829H13.6286V16.9583L21.2119 21.625L22.3786 19.7291L15.8161 15.7916V8.20829Z" fill="#505050" fill-opacity="0.6"/>
</svg>
